<svg xmlns="http://www.w3.org/2000/svg" xmlns:xlink="http://www.w3.org/1999/xlink" preserveAspectRatio="xMidYMid meet" viewBox="0 0 640 560" width="640" height="560"><defs><path d="M381.96 176.24C530.45 261.82 612.94 309.37 629.44 318.88C634.25 321.65 635.91 327.79 633.14 332.6C632.25 334.14 630.98 335.41 629.44 336.3C594.53 356.34 315.21 516.68 280.3 536.72C271.83 541.58 261.44 541.69 252.87 537.02C228.79 523.91 36.18 418.99 12.11 405.87C7.23 403.22 5.43 397.12 8.08 392.24C8.96 390.62 10.28 389.27 11.88 388.34C36.78 373.93 161.27 301.89 385.36 172.22" id="ao2fOKdZ"></path><path d="M494.95 348.61C446.67 365.85 419.85 375.43 414.49 377.35C414.49 377.35 407.37 390.86 447.83 414.9C452.13 410.94 473.59 391.15 512.24 355.51" id="aa8FUeeyp"></path><linearGradient id="gradientaaLvLStAR" gradientUnits="userSpaceOnUse" x1="455.18" y1="377.86" x2="487.68" y2="353.15"><stop style="stop-color: #acf4e6;stop-opacity: 1" offset="0%"></stop><stop style="stop-color: #8ecdc6;stop-opacity: 1" offset="100%"></stop></linearGradient><path d="M316.33 407.39L170.52 485.26L221.21 512.75L359.91 425.94" id="br8UzWX3a"></path><linearGradient id="gradientb1dTkA45x0" gradientUnits="userSpaceOnUse" x1="211.91" y1="489.6" x2="288.06" y2="445"><stop style="stop-color: #acf4e6;stop-opacity: 1" offset="0%"></stop><stop style="stop-color: #8ecdc6;stop-opacity: 1" offset="100%"></stop></linearGradient><path d="M235.77 363.78C145.72 409.53 95.69 434.94 85.69 440.02C85.69 440.02 111.75 442.61 151.67 464.65C160.86 459.8 206.83 435.54 289.56 391.87" id="aH3cSgh2q"></path><linearGradient id="gradienth3G5DHujEY" gradientUnits="userSpaceOnUse" x1="170.23" y1="428.14" x2="235.64" y2="381.84"><stop style="stop-color: #acf4e6;stop-opacity: 1" offset="0%"></stop><stop style="stop-color: #8ecdc6;stop-opacity: 1" offset="100%"></stop></linearGradient><path d="M292.9 331.63C326.74 344.32 345.53 351.38 349.29 352.79C349.29 352.79 351.65 354.32 350.14 357.98C349.27 360.08 344.61 363.1 344.61 363.1C339.74 365.94 300.79 388.61 295.92 391.44C293.26 392.63 290.43 393.39 287.53 393.71C283.64 393.93 277.13 390.78 277.13 390.78C274.1 389.03 258.99 380.28 231.78 364.52L292.9 331.63Z" id="jeRHaoR4a"></path><path d="M293.69 329C326.02 342.22 343.98 349.56 347.57 351.03C347.57 351.03 351.35 353.09 350.35 355.89C349.27 357.96 347.59 359.67 345.53 360.78C340.65 363.58 301.6 386.03 296.72 388.83C294.06 390.02 291.23 390.79 288.33 391.1C284.44 391.33 277.92 388.17 277.92 388.17C275.06 386.55 260.74 378.42 234.98 363.78L293.69 329Z" id="dzkkuzDI"></path><path d="M166.27 403.08C164.16 403.98 161.71 403.39 160.24 401.62C160.24 401.62 159.18 401.42 159.18 396.79C159.18 375.31 159.18 203.52 159.18 182.04C159.3 178.28 161.01 174.75 163.89 172.33C169.15 168.64 174.64 165.29 180.32 162.28C196.24 153.1 275.8 107.17 419.02 24.5C420.63 23.69 421.53 23.23 421.71 23.14C423.57 22.21 425.84 22.79 427.03 24.5C427.73 25.69 428.13 27.03 428.2 28.41C428.3 30.66 428.2 52.37 428.2 52.37C428.2 71.69 428.2 226.31 428.2 245.63C428.21 249.38 426.63 252.96 423.86 255.49C372.34 285.01 217.79 373.56 166.27 403.08Z" id="kmklQeauJ"></path><path d="M163.57 370.62C163.57 259.41 163.57 197.63 163.57 185.27C163.57 179.11 164.42 175.68 169.23 173.11C194.41 158.52 395.8 41.84 420.97 27.26C422.44 26.16 424.53 26.47 425.62 27.94C426.05 28.52 426.28 29.22 426.28 29.94C426.24 42.65 426.03 106.18 425.65 220.52L163.57 370.62Z" id="bNCq0Rk5G"></path><path d="M217.92 464.65C220.21 466.87 222.99 468.54 226.02 469.54C231.33 471.43 248.9 478.31 248.9 478.31C248.9 478.31 261.33 483.39 264.54 482.61C267.76 481.84 227.95 464.65 227.95 464.65C225.94 464.65 219.92 464.65 217.92 464.65Z" id="aOtVx6abz"></path><path d="M261.41 482.1C265.09 483.07 269.01 482.63 272.38 480.86C280.36 476.81 281.21 471.66 279.43 467.42C277.65 463.19 256.89 453.71 247.79 452.31C242.19 451.5 236.49 451.99 231.12 453.77C228.26 454.69 225.54 455.99 223.04 457.66C221.38 458.79 216.16 461.91 217.9 464.55C218.34 465.07 218.95 465.41 219.62 465.52C226.42 467.41 233.2 469.54 239.83 472.03C243.61 473.47 247.39 475.13 251.02 476.95C253.43 478.23 255.82 479.74 258.29 480.89C259.3 481.38 260.34 481.78 261.41 482.1Z" id="a3nibfwLuM"></path><path d="M259.8 440.24C259.8 442.65 259.8 443.99 259.8 444.26C259.8 444.26 259.8 444.89 261.33 445.6C261.33 445.6 299.12 460.72 299.12 460.72C300.09 461.19 301.22 461.19 302.2 460.72C303.73 459.91 447.66 376.72 447.66 376.72C447.66 376.72 448.36 376.29 447.83 374.53C447.68 374.47 446.93 374.18 445.59 373.64" id="a3z1TiT1n5"></path><path d="M259.99 440.62C259.99 440.62 273.82 447.49 273.82 447.49C276.32 448.63 296.31 457.7 298.81 458.83C299.71 459.41 300.83 459.54 301.84 459.19C303.46 458.56 447.3 375.61 447.3 375.61C447.59 375.32 447.72 374.91 447.63 374.51C447.63 374.51 447.63 374.17 446.91 373.85C446.91 373.85 409.27 355.75 409.27 355.75C408.46 355.37 407.53 355.32 406.69 355.62C405.63 356.19 260.82 439.2 260.82 439.2C260.66 439.48 259.4 439.88 259.99 440.62Z" id="b4RdRIpn"></path><path d="M82.69 241.8C82.68 246.28 86.32 249.93 90.8 249.93C92.17 249.93 93.51 249.59 94.7 248.94C102.47 244.7 164.62 210.84 172.39 206.6C175 205.18 176.62 202.44 176.62 199.46C176.62 193.43 176.62 145.22 176.62 139.19C176.63 134.71 172.99 131.07 168.51 131.06C167.08 131.06 165.67 131.43 164.43 132.15C156.67 136.64 94.52 172.53 86.75 177.02C84.24 178.47 82.69 181.14 82.69 184.04C82.69 195.6 82.69 236.02 82.69 241.8Z" id="e1dIhvjFv1"></path><path d="M176.62 184.61L176.62 223.6L160.03 208.68" id="aXH7GYm1A"></path><path d="M405.11 61.76C409.96 63.87 411.94 70.07 409.53 75.61C407.12 81.15 401.24 83.93 396.39 81.82C391.53 79.71 389.56 73.51 391.97 67.97C394.38 62.43 400.26 59.65 405.11 61.76Z" id="babGnKggV"></path><path d="M209.83 309.96L224.25 301.53L224.38 232.03L209.83 240.44L209.83 240.44L209.83 309.96Z" id="g31oBa3Vi"></path><path d="M233.79 296.47L248.9 287.7L248.9 206.37L234.05 214.76L234.05 214.76L233.79 296.47Z" id="c9oXJvy8R"></path><path d="M258.2 282.83L271.67 275.01L271.67 184.61L258.44 192.66L258.44 192.66L258.2 282.83Z" id="bqzHWLJ9n"></path><path d="M405.13 90.5C409.98 92.61 411.96 98.82 409.55 104.36C407.14 109.9 401.25 112.68 396.4 110.57C391.55 108.46 389.57 102.25 391.98 96.71C394.39 91.17 400.28 88.39 405.13 90.5Z" id="a4sCDqmpI8"></path><path d="M406.82 119.24C411.21 122.18 412.05 128.64 408.69 133.66C405.33 138.68 399.05 140.37 394.65 137.42C390.25 134.48 389.41 128.03 392.77 123.01C396.13 117.99 402.42 116.3 406.82 119.24Z" id="i2x92wBAMt"></path><path d="M316.7 224.79C305.24 221.15 296.62 211.57 292.43 198.01C288.61 184.36 288.98 169.88 293.49 156.44C303.37 125.33 329.02 106.64 351.92 113.92C374.82 121.19 385 151.15 375.04 182.27C375.04 182.27 375.04 182.27 375.04 182.27C370.97 195.87 362.9 207.94 351.88 216.9C344.78 222.74 335.93 226.06 326.74 226.34C323.33 226.35 319.95 225.82 316.7 224.79ZM309.22 161.34C305.71 171.6 305.36 182.68 308.22 193.15C310.77 201.44 315.55 207.09 321.71 209.04C327.87 210.98 334.93 209.13 341.89 203.82C350.25 196.92 356.35 187.67 359.4 177.26C366.24 155.73 360.51 133.81 346.93 129.56C345.32 129.05 343.64 128.8 341.94 128.8C329.36 128.8 315.25 142.37 309.22 161.34Z" id="a37ZjJzggA"></path><path d="M211.1 318.48C211.11 320.32 212.61 321.8 214.44 321.79C215.01 321.78 215.57 321.63 216.07 321.35C222.26 317.81 271.8 289.52 277.99 285.99C279.02 285.39 279.65 284.3 279.66 283.11C279.66 283.11 279.66 283.11 279.66 283.11C279.65 281.28 278.16 279.79 276.32 279.8C275.76 279.8 275.2 279.95 274.71 280.22C268.51 283.76 218.97 312.07 212.78 315.61C211.75 316.2 211.1 317.29 211.1 318.48C211.1 318.48 211.1 318.48 211.1 318.48Z" id="b46JI3n5ps"></path><path d="M197.61 207.85C197.61 209.79 199.18 211.36 201.12 211.36C201.74 211.36 202.35 211.2 202.88 210.89C209.7 206.95 264.23 175.46 271.04 171.52C272.13 170.89 272.8 169.73 272.8 168.48C272.8 165.97 272.8 145.93 272.8 143.43C272.8 141.49 271.22 139.91 269.28 139.91C268.67 139.91 268.06 140.08 267.53 140.39C260.71 144.32 206.17 175.78 199.35 179.72C198.26 180.35 197.6 181.52 197.61 182.78C197.61 187.79 197.61 205.34 197.61 207.85Z" id="d8ELul3CD"></path><path d="M216.23 178.51C220.9 179.99 223.19 185.93 221.33 191.78C219.47 197.63 214.18 201.17 209.51 199.68C204.83 198.2 202.55 192.26 204.4 186.41C206.26 180.56 211.55 177.02 216.23 178.51Z" id="a1kMPz6DPN"></path><path d="M264.94 153.7C265.62 153.31 265.85 152.44 265.45 151.76C265.05 151.08 264.18 150.85 263.5 151.25C259.52 153.49 227.65 171.4 223.66 173.64C222.98 174.03 222.75 174.9 223.15 175.58C223.55 176.26 224.42 176.49 225.1 176.09C225.1 176.09 260.96 155.94 264.94 153.7Z" id="c18LKdBm4L"></path><path d="M251.36 171.95C252.03 171.56 252.26 170.69 251.87 170.01C251.47 169.33 250.6 169.1 249.92 169.5C247.44 170.88 227.63 181.98 225.15 183.36C224.48 183.76 224.25 184.63 224.64 185.31C225.04 185.99 225.91 186.22 226.59 185.82C226.59 185.82 248.88 173.34 251.36 171.95Z" id="c2jEMMtm"></path><path d="M373.8 183.87L363.95 155.78L347.25 166.27L355.45 188.01L357.44 194.4L357.44 194.4L373.8 183.87Z" id="h1QFME0dkr"></path><path d="M359.06 192.24C360.29 189.1 359.45 185.53 356.96 183.25C357.67 181.27 358.08 179.19 358.19 177.09C358.22 176.79 358.09 176.5 357.85 176.32C357.55 175.82 356.9 175.65 356.4 175.96C356.2 176.07 356.05 176.25 355.96 176.47C355.49 177.94 355.09 179.43 354.71 180.95C354.32 182.06 354 183.19 353.75 184.35C353.51 183.36 353.24 182.46 352.96 181.42C352.96 181.42 352.96 181.42 352.96 181.42C352.94 181.29 352.89 181.17 352.83 181.06C352.8 180.98 352.6 180.35 352.58 180.27C352.14 178.47 351.62 176.69 351.01 174.94C351.01 174.87 351.01 174.83 351.01 174.83C350.95 174.66 350.83 174.52 350.67 174.43C350.71 179.74 351.23 185.04 352.22 190.26C352.93 192.4 353.78 194.49 354.77 196.51C354.85 196.65 354.96 196.77 355.09 196.85C355.28 197.44 355.47 198.01 355.72 198.57C355.72 198.58 355.72 198.62 355.72 198.69C355.81 199 355.86 199.18 355.87 199.21C356.11 199.74 356.72 199.97 357.24 199.73C357.47 199.62 357.65 199.44 357.76 199.21C358.46 199.67 359.65 199.21 359.34 198.31C359.9 198.21 360.27 197.68 360.17 197.12C360.16 197.06 360.14 197 360.12 196.95C359.91 196.01 359.17 192.71 359.06 192.24Z" id="b16vtvNdZS"></path><path d="M378.52 163.58C375 160.42 371.65 157.06 368.49 153.53C368.38 153.42 368.25 153.34 368.11 153.29C367.52 152.62 366.89 151.99 366.22 151.4C365.8 151 365.13 151.01 364.72 151.43C364.47 151.7 364.38 152.07 364.46 152.42C364.99 154.79 366.21 156.95 367.96 158.63C367.62 159.31 367.24 160.07 366.96 160.83C367.13 160.89 367.24 161.06 367.24 161.24C367.22 161.61 367.14 161.98 366.99 162.32C366.93 162.56 366.83 162.79 366.69 163C366.63 163.09 366.55 163.15 366.45 163.19C366.52 164.19 367.04 165.11 367.86 165.68C367.7 166.71 367.92 167.77 368.49 168.65C368.49 168.65 368.53 168.69 368.6 168.74C368.7 168.74 368.76 168.74 368.77 168.74C370.24 169.13 371.68 169.62 373.08 170.22C373.29 170.36 373.34 170.66 373.19 170.87C373.16 170.92 373.12 170.96 373.08 170.99C374.17 171.18 375.28 171.3 376.38 171.35C376.63 171.37 376.88 171.29 377.06 171.12C377.11 171.15 377.51 171.36 377.56 171.39C378.08 171.67 378.73 171.47 379.01 170.95C379.09 170.81 379.14 170.64 379.14 170.48C379.16 170.35 379.16 170.23 379.14 170.1C379.19 170.13 379.57 170.37 379.61 170.4C379.62 171.07 380.16 171.61 380.83 171.61C380.92 171.6 381 171.59 381.09 171.58C381.72 171.48 382.17 170.91 382.13 170.27C382.12 170.11 382.08 169.95 382.01 169.8C382.13 169.9 383.02 170.67 383.13 170.76C383.23 170.88 383.41 170.89 383.53 170.78C383.6 170.72 383.63 170.63 383.62 170.54C383.63 170.49 383.63 170.45 383.62 170.4C384.22 170.99 384.78 171.62 385.28 172.29C392.65 178.57 385.81 170.2 385.6 169.97C386.13 169.65 379.12 164.11 378.52 163.58ZM380.26 170.61C380.58 170.6 380.87 170.45 381.07 170.2C381.07 170.2 381.07 170.2 381.07 170.2C381.21 170.27 381.38 170.22 381.45 170.08C381.46 170.07 381.46 170.06 381.47 170.05C381.47 170.05 381.47 170.05 381.47 170.05C381.64 170.36 381.53 170.77 381.21 170.95C381.16 170.97 381.11 170.99 381.05 171.01C380.72 171.12 380.37 170.94 380.26 170.61Z" id="g2POxSq5a"></path><path d="M380.58 167.85C379.73 166.98 378.33 166.96 377.45 167.81C377.44 167.82 377.42 167.84 377.4 167.85C377.16 167.31 376.96 166.76 376.8 166.19C376.4 164.97 375.1 164.3 373.87 164.7C372.73 165.06 372.06 166.25 372.32 167.42C372.86 169.7 374.1 171.76 375.86 173.31C377.69 174.64 379.75 175.63 381.94 176.22C383.22 176.53 384.5 175.74 384.81 174.47C384.88 174.16 384.9 173.85 384.85 173.54C384.86 173.52 384.98 173.35 385 173.33C385.62 172.23 385.26 170.84 384.19 170.18C382.85 169.64 381.62 168.85 380.58 167.85Z" id="c26XlIQCv"></path><path d="M371.77 165.62C371.8 165.56 371.8 165.48 371.77 165.42C371.77 165.42 371.77 165.42 371.77 165.42C370.33 164.06 369.54 163.3 369.38 163.15C369.04 162.81 368.68 162.49 368.37 162.13C368.07 161.77 366.69 158.88 369 159.47C369.7 159.64 370.89 160.98 371.51 161.47C372.13 161.96 373.1 162.83 373.87 163.53C374.15 163.77 374.55 163.38 374.29 163.11C372.15 161.22 370.31 159.71 369.87 159.33C369.15 158.79 368.43 158.2 367.6 158.92C366.97 159.46 366.77 160.35 367.11 161.11C366.94 161.87 366.35 162.58 366.47 163.4C366.68 164.19 367.14 164.89 367.77 165.42C367.81 165.45 368.09 165.74 368.13 165.78C368.11 165.83 368.11 165.88 368.13 165.93C368.13 166.87 367.73 167.99 368.62 168.63C369 168.87 369.41 169.05 369.85 169.16C370.06 169.23 371.75 169.79 371.96 169.86C372.1 169.9 372.25 169.83 372.3 169.69C372.3 169.68 372.3 169.67 372.3 169.67C373.49 171.68 375.37 173.18 377.59 173.88C377.88 174.03 378.03 173.47 377.67 173.35C374.21 172.36 371.82 169.22 371.77 165.62ZM367.2 162.55C367.2 162.32 367.37 162.09 367.47 161.88C368.57 163.29 369.84 164.56 371.25 165.66C371.25 165.66 371.25 165.79 371.25 165.85C371.15 165.79 371.03 165.79 370.94 165.85C369.89 166.93 368.26 165.19 367.64 164.43C367.13 163.95 366.96 163.21 367.2 162.55ZM368.58 167.42C368.54 167.02 368.54 166.61 368.58 166.21C369.39 166.82 370.47 167.21 371.21 166.47C371.3 167.47 371.57 168.45 372.02 169.35C371.26 169.04 370.32 168.82 369.49 168.48C369.02 168.37 368.63 167.94 368.58 167.42Z" id="br5Y1LRn"></path><path d="M410.2 187.99C409.39 186.52 380.56 166.42 378.9 164.04C374.58 168.85 373.66 175.82 376.57 181.59C376.57 181.59 392.1 202.37 400.75 204.69" id="dJUWn5lvu"></path><path d="M363.69 191.81C363.69 191.81 372.28 211.59 378.46 209.98C384.64 208.38 385.32 191.43 399.41 187.31C413.51 183.19 403.34 232.65 384.98 232.88C366.62 233.11 355.92 218.99 350.9 201.9C353.46 199.88 355.34 193.83 363.69 191.81Z" id="bbZ959QhQ"></path><path d="M398.94 380.05C398.63 381.34 397.67 382.37 396.41 382.77C396.19 383.08 395.87 383.29 395.5 383.37C392.77 383.79 389.99 383.56 387.36 382.71C384.04 381.96 371 378.12 375.23 386.94C377.67 388.38 380.37 389.57 382.79 390.82C384.19 391.52 385.58 392.22 387 392.86C387.76 393.29 388.59 393.6 389.46 393.76C391.35 393.9 395.6 392.18 395.75 392.63C395.9 393.08 396.58 396.54 396.58 396.54C396.58 396.54 408.46 400.02 408.33 392.25C408.39 391.23 405.52 377.08 405.52 377.08C404.2 377.68 399.6 379.75 398.94 380.05Z" id="c1mVbjSUIk"></path><path d="M411.49 366.05C411.49 366.05 399.68 361.89 396.92 361.91C396.92 361.91 389.65 363.24 394.07 367.96C394.07 367.96 406.69 374.83 408.29 374.95C409.9 375.06 413.64 373.57 413.77 373.97C413.9 374.36 414.51 377.37 414.51 377.37C414.51 377.37 424.84 380.39 424.73 373.59C424.73 372.7 422.22 360.36 422.22 360.36" id="a3moXlziTA"></path><path d="M410.99 238.43C410.73 232.6 414.77 236.02 414.36 233.73C410.81 215.16 385.3 239.64 385.3 239.64C384.26 240.63 384.6 246.39 384.49 247.71C383.51 258.65 383.2 267.43 383.05 269.63C381.48 306.56 386.08 342.81 390.86 379.35C397.13 384.81 401.06 386.26 410.11 381.69C410.11 357.53 409.88 333.37 409.48 309.22C409.48 308.49 409.48 307.77 409.46 307.05C408.48 276.48 408.99 253.61 410.99 238.43Z" id="cJilthH4x"></path><path d="M422.14 320.18C420.95 306.39 421.29 292.58 421.12 278.77C419.4 261.65 417.66 239.89 417.66 239.89C416.25 240.28 404.91 243.44 403.49 243.84C403.49 243.84 394.29 363.16 408.42 368.22C408.42 368.22 424.73 364.09 424.73 364.09C424.73 364.09 424.71 357.08 424.62 347.33C424.03 338.24 422.92 329.17 422.14 320.18Z" id="f1selj7yuT"></path><path d="M417.91 231.95C416.88 224.37 416.88 216.68 417.91 209.1C418.78 201.77 418.83 194.19 414.32 187.94C407.8 184.16 398.73 187.54 393.24 191.58C385.81 197.06 383.32 234.26 383.41 245.76C383.41 247.39 393.27 248.22 394.37 248.3C399.49 248.77 404.64 248.38 409.63 247.16C413.19 246.2 417.61 244.44 418.61 240.47C418.72 240.02 418.79 239.55 418.82 239.08C418.74 236.68 418.43 234.29 417.91 231.95Z" id="a1lPPKFf16"></path><path d="M408.17 249.55C407.88 249.76 407.71 250.09 407.73 250.45C414.45 271.04 403.31 292.33 405.46 313.32C406.59 324.37 408.56 335.27 409.24 346.4C409.91 358.22 409.79 370.06 408.88 381.86C408.78 383.19 410.77 383.07 410.94 381.77C411.85 369.97 411.97 358.12 411.3 346.31C410.62 334.58 408.33 323.07 407.39 311.4C405.61 290.75 416.27 270.17 409.62 249.81C409.29 249.34 408.64 249.22 408.17 249.55Z" id="hb44MCUFM"></path><path d="M383.85 232.9C383.85 233.6 383.62 237.94 383.56 238.57C391.8 236.68 397.86 226.27 398.68 217.52C398.85 216.27 396.79 216.27 396.66 217.6C396.02 224.88 390.9 230.99 383.85 232.9Z" id="c7l3TXJAgs"></path><path d="M397.09 186.07C398.83 193.38 411.41 186.44 414.72 181.06C418.02 175.68 413.36 164.34 401.62 166.93C401 167.06 395.35 178.75 397.09 186.07Z" id="b5dEulF1Rt"></path><path d="M401.72 168.53C401.63 170.8 402.9 172.91 404.95 173.88C408.35 175.28 411.16 176.26 410.9 177.85C410.64 179.43 404.68 177.38 404.53 181C404.43 183.45 404.66 185.91 405.21 188.3C405.52 190.18 416.06 185.05 419.84 175.86C423.61 166.68 415.21 163.87 414.79 163.77C413.6 161.89 411.74 160.54 409.58 160C405.44 158.92 404.19 160.49 404.19 160.49C402.29 159.23 399.79 159.4 398.07 160.9C395.22 163.03 394.63 167.07 396.76 169.92C397.38 170.74 398.18 171.41 399.11 171.86C399.63 171.19 401.2 169.2 401.72 168.53Z" id="a1aewSm6gI"></path><path d="M472.43 260.22C475.09 260.07 477.74 260.59 480.14 261.73C482.6 263.12 484.52 265.3 485.58 267.93C486.77 270.42 487.28 273.97 489.75 275.48C490.72 275.99 491.55 276.72 492.19 277.6C493.41 279.32 493.69 281.54 492.95 283.51C491.85 285.7 487.28 287.04 485.22 286.65" id="awXdmWtsR"></path><path d="M470.41 260.48C464.05 261.05 458.77 265.61 457.28 271.82C456.51 274.86 456.48 278.04 457.19 281.09C457.77 283.55 459.23 287.82 462.23 288.01C466.29 288.25 467.59 284.46 468.88 281.34C470.16 278.22 471.51 274.78 474.75 273.55C478.04 272.29 481.76 273.13 484.2 275.67C481.44 272.63 473.17 263.52 470.41 260.48Z" id="k1ImSjNyIo"></path><path d="M482.12 267.11C480.78 265.03 479.18 263.13 477.36 261.45C471.69 258.71 464.61 261.22 460.36 266.02C460.93 266.19 461.72 266.22 462.25 266.38C464.75 267.34 466.97 268.91 468.71 270.95C471.2 273.71 473.15 277.09 475.36 280.03C478.95 284.8 483.71 288.73 489.85 285.87C493.78 283.96 490.7 279.2 488.98 276.97C486.52 273.8 484.48 270.34 482.12 267.11Z" id="caov49Km5"></path><path d="M508.89 236.15C508.89 236.15 521.61 235.15 521.36 255.27C521.36 255.27 502.13 262.14 506.25 250.03" id="h3m4ixQtah"></path><path d="M519.6 244.61C518.32 239.31 513.56 235.58 508.1 235.62C499.39 235.85 492.87 244.69 491.4 255.12C490.68 261.48 493.06 267.81 497.8 272.12C498.22 272.48 501.58 275.35 502 275.71C509.74 272.72 506.87 261.52 507.06 255.95C506.93 249.83 513.8 245.37 519.6 244.61Z" id="k1f5QS2D10"></path><path d="M538.74 259.4C537.1 256.12 534.06 253.76 530.47 253C529.75 254.38 524.02 265.41 523.31 266.79C523.31 266.79 533.98 248.13 529.62 262.5C529.62 262.5 539.63 292.98 541.59 271.55C541.63 271.14 541.65 270.74 541.69 270.32C541.5 266.52 540.5 262.79 538.74 259.4Z" id="bvmoRt1Xy"></path><path d="M484.18 327C485.12 332.05 486.54 337 488.43 341.77C490.32 346.52 491.64 352.62 496.42 355.3C501.34 357.97 507.25 358.04 512.24 355.51C516.34 353 517.81 347.31 519.3 343.08C521.09 337.86 522.32 332.47 522.97 327C527.5 291.8 491.1 306.22 491.1 306.22C489.71 310.38 481.54 312.45 484.18 327Z" id="e6FAeJhweZ"></path><path d="M517.94 308.35C517.94 311.14 511.69 313.4 503.98 313.4C496.27 313.4 490.02 311.14 490.02 308.35C490.02 305.57 496.27 303.31 503.98 303.31C511.69 303.31 517.94 305.57 517.94 308.35Z" id="b1drC2ONYs"></path><path d="M498.37 267.75C496.9 260.78 499.7 253.59 505.51 249.45C506.57 248.67 505.51 246.88 504.47 247.67C495.55 254.15 493.82 265.22 499.03 274.65C500.9 277.46 502.48 280.45 503.73 283.59C505.02 287.78 503.58 290.82 501.62 293.98C501.73 290.86 500.62 287.82 498.52 285.51C496.2 283.36 492.85 283 489.91 282.04C484.35 280.15 479.46 276.99 478.57 270.7C478.36 269.4 476.38 269.95 476.59 271.25C477.45 276.11 480.66 280.23 485.16 282.25C487.85 283.4 490.61 284.36 493.44 285.12C495.92 286.07 497.89 288 498.9 290.46C500.22 293.5 499.31 295.58 498.58 298.53C497.61 302.31 496.08 305.63 498.71 309.26C499.48 310.32 501.28 309.26 500.49 308.22C496.31 302.46 502.98 296.89 505.25 292.01C506.73 288.64 506.68 284.79 505.11 281.45C503.22 276.75 499.45 272.8 498.37 267.75Z" id="aEYo5ToED"></path><path d="M516.56 282.62C516.75 284.77 517.15 286.89 517.75 288.95C518.45 290.7 518.85 292.55 518.92 294.43C518.32 297.11 516.43 299.31 513.88 300.32C510.22 301.68 507.44 304.73 506.44 308.51C506.36 309.07 506.76 309.6 507.33 309.67C507.79 309.73 508.24 309.48 508.42 309.05C510.46 301.5 520.89 302.67 520.96 294.43C520.96 290.41 518.87 286.65 518.62 282.62C518.19 275.6 522.78 269.4 530.32 270.8C531.6 271.02 532.17 269.04 530.86 268.81C522.04 267.26 516.03 274.08 516.56 282.62Z" id="dLaB2N8AF"></path><path d="M523.02 253.59C522.18 253.93 521.36 254.32 520.57 254.78C505.25 266.11 516.13 291.75 518.49 291.54C526.29 290.9 525.48 286.31 528.11 273.46C529.03 267.47 534.23 263.08 540.29 263.18C539.88 261.91 539.37 260.68 538.74 259.5C535.32 253.19 529.11 251.72 523.02 253.59Z" id="a1iBOWeCQw"></path><path d="M522.4 261.39C516.73 270.83 518.09 281.66 518.83 291.99C518.92 293.32 520.98 293.32 520.89 291.99C520.34 284.44 519.3 277.13 521.32 269.8C522.32 266.21 523.51 262.24 526.39 259.63C529.55 256.83 534.09 256.18 537.91 257.99C537.83 257.88 537.21 257.04 537.14 256.93C536.49 256.42 535.95 255.83 535.38 255.23C530.2 254.42 525.05 256.87 522.4 261.39Z" id="b1busNfGUR"></path></defs><g><g><g><use xlink:href="#ao2fOKdZ" opacity="1" fill="#acf4e6" fill-opacity="1"></use><g><use xlink:href="#ao2fOKdZ" opacity="1" fill-opacity="0" stroke="#000000" stroke-width="1" stroke-opacity="0"></use></g></g><g><use xlink:href="#aa8FUeeyp" opacity="1" fill="url(#gradientaaLvLStAR)"></use><g><use xlink:href="#aa8FUeeyp" opacity="1" fill-opacity="0" stroke="#000000" stroke-width="1" stroke-opacity="0"></use></g></g><g><use xlink:href="#br8UzWX3a" opacity="1" fill="url(#gradientb1dTkA45x0)"></use><g><use xlink:href="#br8UzWX3a" opacity="1" fill-opacity="0" stroke="#000000" stroke-width="1" stroke-opacity="0"></use></g></g><g><use xlink:href="#aH3cSgh2q" opacity="1" fill="url(#gradienth3G5DHujEY)"></use><g><use xlink:href="#aH3cSgh2q" opacity="1" fill-opacity="0" stroke="#000000" stroke-width="1" stroke-opacity="0"></use></g></g><g><use xlink:href="#jeRHaoR4a" opacity="1" fill="#34323d" fill-opacity="1"></use><g><use xlink:href="#jeRHaoR4a" opacity="1" fill-opacity="0" stroke="#000000" stroke-width="1" stroke-opacity="0"></use></g></g><g><use xlink:href="#dzkkuzDI" opacity="1" fill="#435950" fill-opacity="1"></use><g><use xlink:href="#dzkkuzDI" opacity="1" fill-opacity="0" stroke="#000000" stroke-width="1" stroke-opacity="0"></use></g></g><g><use xlink:href="#kmklQeauJ" opacity="1" fill="#334c42" fill-opacity="1"></use><g><use xlink:href="#kmklQeauJ" opacity="1" fill-opacity="0" stroke="#000000" stroke-width="1" stroke-opacity="0"></use></g></g><g><use xlink:href="#bNCq0Rk5G" opacity="1" fill="#9a6cff" fill-opacity="1"></use><g><use xlink:href="#bNCq0Rk5G" opacity="1" fill-opacity="0" stroke="#000000" stroke-width="1" stroke-opacity="0"></use></g></g><g><use xlink:href="#aOtVx6abz" opacity="1" fill="#34323d" fill-opacity="1"></use><g><use xlink:href="#aOtVx6abz" opacity="1" fill-opacity="0" stroke="#000000" stroke-width="1" stroke-opacity="0"></use></g></g><g><use xlink:href="#a3nibfwLuM" opacity="1" fill="#334c42" fill-opacity="1"></use><g><use xlink:href="#a3nibfwLuM" opacity="1" fill-opacity="0" stroke="#000000" stroke-width="1" stroke-opacity="0"></use></g></g><g><use xlink:href="#a3z1TiT1n5" opacity="1" fill="#2f2e36" fill-opacity="1"></use><g><use xlink:href="#a3z1TiT1n5" opacity="1" fill-opacity="0" stroke="#000000" stroke-width="1" stroke-opacity="0"></use></g></g><g><use xlink:href="#b4RdRIpn" opacity="1" fill="#334c42" fill-opacity="1"></use><g><use xlink:href="#b4RdRIpn" opacity="1" fill-opacity="0" stroke="#000000" stroke-width="1" stroke-opacity="0"></use></g></g><g><use xlink:href="#e1dIhvjFv1" opacity="1" fill="#68e1fd" fill-opacity="1"></use><g><use xlink:href="#e1dIhvjFv1" opacity="1" fill-opacity="0" stroke="#000000" stroke-width="1" stroke-opacity="0"></use></g></g><g><use xlink:href="#aXH7GYm1A" opacity="1" fill="#68e1fd" fill-opacity="1"></use><g><use xlink:href="#aXH7GYm1A" opacity="1" fill-opacity="0" stroke="#000000" stroke-width="1" stroke-opacity="0"></use></g></g><g><use xlink:href="#babGnKggV" opacity="1" fill="#ffe427" fill-opacity="1"></use><g><use xlink:href="#babGnKggV" opacity="1" fill-opacity="0" stroke="#000000" stroke-width="1" stroke-opacity="0"></use></g></g><g><use xlink:href="#g31oBa3Vi" opacity="1" fill="#ffe427" fill-opacity="1"></use><g><use xlink:href="#g31oBa3Vi" opacity="1" fill-opacity="0" stroke="#000000" stroke-width="1" stroke-opacity="0"></use></g></g><g><use xlink:href="#c9oXJvy8R" opacity="1" fill="#ffe427" fill-opacity="1"></use><g><use xlink:href="#c9oXJvy8R" opacity="1" fill-opacity="0" stroke="#000000" stroke-width="1" stroke-opacity="0"></use></g></g><g><use xlink:href="#bqzHWLJ9n" opacity="1" fill="#ffe427" fill-opacity="1"></use><g><use xlink:href="#bqzHWLJ9n" opacity="1" fill-opacity="0" stroke="#000000" stroke-width="1" stroke-opacity="0"></use></g></g><g><use xlink:href="#a4sCDqmpI8" opacity="1" fill="#ffe427" fill-opacity="1"></use><g><use xlink:href="#a4sCDqmpI8" opacity="1" fill-opacity="0" stroke="#000000" stroke-width="1" stroke-opacity="0"></use></g></g><g><use xlink:href="#i2x92wBAMt" opacity="1" fill="#ffe427" fill-opacity="1"></use><g><use xlink:href="#i2x92wBAMt" opacity="1" fill-opacity="0" stroke="#000000" stroke-width="1" stroke-opacity="0"></use></g></g><g><use xlink:href="#a37ZjJzggA" opacity="1" fill="#68e1fd" fill-opacity="1"></use><g><use xlink:href="#a37ZjJzggA" opacity="1" fill-opacity="0" stroke="#000000" stroke-width="1" stroke-opacity="0"></use></g></g><g><use xlink:href="#b46JI3n5ps" opacity="1" fill="#ffe427" fill-opacity="1"></use><g><use xlink:href="#b46JI3n5ps" opacity="1" fill-opacity="0" stroke="#000000" stroke-width="1" stroke-opacity="0"></use></g></g><g><use xlink:href="#d8ELul3CD" opacity="1" fill="#ffe427" fill-opacity="1"></use><g><use xlink:href="#d8ELul3CD" opacity="1" fill-opacity="0" stroke="#000000" stroke-width="1" stroke-opacity="0"></use></g></g><g><use xlink:href="#a1kMPz6DPN" opacity="1" fill="#ffffff" fill-opacity="1"></use><g><use xlink:href="#a1kMPz6DPN" opacity="1" fill-opacity="0" stroke="#000000" stroke-width="1" stroke-opacity="0"></use></g></g><g><use xlink:href="#c18LKdBm4L" opacity="1" fill="#7f47dd" fill-opacity="1"></use><g><use xlink:href="#c18LKdBm4L" opacity="1" fill-opacity="0" stroke="#000000" stroke-width="1" stroke-opacity="0"></use></g></g><g><use xlink:href="#c2jEMMtm" opacity="1" fill="#7f47dd" fill-opacity="1"></use><g><use xlink:href="#c2jEMMtm" opacity="1" fill-opacity="0" stroke="#000000" stroke-width="1" stroke-opacity="0"></use></g></g><g><use xlink:href="#h1QFME0dkr" opacity="1" fill="#ffe427" fill-opacity="1"></use><g><use xlink:href="#h1QFME0dkr" opacity="1" fill-opacity="0" stroke="#000000" stroke-width="1" stroke-opacity="0"></use></g></g><g><use xlink:href="#b16vtvNdZS" opacity="1" fill="#fcbf81" fill-opacity="1"></use><g><use xlink:href="#b16vtvNdZS" opacity="1" fill-opacity="0" stroke="#000000" stroke-width="1" stroke-opacity="0"></use></g></g><g><use xlink:href="#g2POxSq5a" opacity="1" fill="#fcbf81" fill-opacity="1"></use><g><use xlink:href="#g2POxSq5a" opacity="1" fill-opacity="0" stroke="#000000" stroke-width="1" stroke-opacity="0"></use></g></g><g><use xlink:href="#c26XlIQCv" opacity="1" fill="#fcbf81" fill-opacity="1"></use><g><use xlink:href="#c26XlIQCv" opacity="1" fill-opacity="0" stroke="#000000" stroke-width="1" stroke-opacity="0"></use></g></g><g><use xlink:href="#br5Y1LRn" opacity="1" fill="#34323d" fill-opacity="1"></use><g><use xlink:href="#br5Y1LRn" opacity="1" fill-opacity="0" stroke="#000000" stroke-width="1" stroke-opacity="0"></use></g></g><g><use xlink:href="#dJUWn5lvu" opacity="1" fill="#22b68e" fill-opacity="1"></use><g><use xlink:href="#dJUWn5lvu" opacity="1" fill-opacity="0" stroke="#000000" stroke-width="1" stroke-opacity="0"></use></g></g><g><use xlink:href="#bbZ959QhQ" opacity="1" fill="#22b68e" fill-opacity="1"></use><g><use xlink:href="#bbZ959QhQ" opacity="1" fill-opacity="0" stroke="#000000" stroke-width="1" stroke-opacity="0"></use></g></g><g><use xlink:href="#c1mVbjSUIk" opacity="1" fill="#e55600" fill-opacity="1"></use><g><use xlink:href="#c1mVbjSUIk" opacity="1" fill-opacity="0" stroke="#000000" stroke-width="1" stroke-opacity="0"></use></g></g><g><use xlink:href="#a3moXlziTA" opacity="1" fill="#e55600" fill-opacity="1"></use><g><use xlink:href="#a3moXlziTA" opacity="1" fill-opacity="0" stroke="#000000" stroke-width="1" stroke-opacity="0"></use></g></g><g><use xlink:href="#cJilthH4x" opacity="1" fill="#ffe427" fill-opacity="1"></use><g><use xlink:href="#cJilthH4x" opacity="1" fill-opacity="0" stroke="#000000" stroke-width="1" stroke-opacity="0"></use></g></g><g><use xlink:href="#f1selj7yuT" opacity="1" fill="#ffe427" fill-opacity="1"></use><g><use xlink:href="#f1selj7yuT" opacity="1" fill-opacity="0" stroke="#000000" stroke-width="1" stroke-opacity="0"></use></g></g><g><use xlink:href="#a1lPPKFf16" opacity="1" fill="#22b68e" fill-opacity="1"></use><g><use xlink:href="#a1lPPKFf16" opacity="1" fill-opacity="0" stroke="#000000" stroke-width="1" stroke-opacity="0"></use></g></g><g><use xlink:href="#hb44MCUFM" opacity="1" fill="#34323d" fill-opacity="1"></use><g><use xlink:href="#hb44MCUFM" opacity="1" fill-opacity="0" stroke="#000000" stroke-width="1" stroke-opacity="0"></use></g></g><g><use xlink:href="#c7l3TXJAgs" opacity="1" fill="#06825e" fill-opacity="1"></use><g><use xlink:href="#c7l3TXJAgs" opacity="1" fill-opacity="0" stroke="#000000" stroke-width="1" stroke-opacity="0"></use></g></g><g><use xlink:href="#b5dEulF1Rt" opacity="1" fill="#fcbf81" fill-opacity="1"></use><g><use xlink:href="#b5dEulF1Rt" opacity="1" fill-opacity="0" stroke="#000000" stroke-width="1" stroke-opacity="0"></use></g></g><g><use xlink:href="#a1aewSm6gI" opacity="1" fill="#34323d" fill-opacity="1"></use><g><use xlink:href="#a1aewSm6gI" opacity="1" fill-opacity="0" stroke="#000000" stroke-width="1" stroke-opacity="0"></use></g></g><g><use xlink:href="#awXdmWtsR" opacity="1" fill="#8fdb5e" fill-opacity="1"></use><g><use xlink:href="#awXdmWtsR" opacity="1" fill-opacity="0" stroke="#000000" stroke-width="1" stroke-opacity="0"></use></g></g><g><use xlink:href="#k1ImSjNyIo" opacity="1" fill="#1e8c0e" fill-opacity="1"></use><g><use xlink:href="#k1ImSjNyIo" opacity="1" fill-opacity="0" stroke="#000000" stroke-width="1" stroke-opacity="0"></use></g></g><g><use xlink:href="#caov49Km5" opacity="1" fill="#8fdb5e" fill-opacity="1"></use><g><use xlink:href="#caov49Km5" opacity="1" fill-opacity="0" stroke="#000000" stroke-width="1" stroke-opacity="0"></use></g></g><g><use xlink:href="#h3m4ixQtah" opacity="1" fill="#1e8c0e" fill-opacity="1"></use><g><use xlink:href="#h3m4ixQtah" opacity="1" fill-opacity="0" stroke="#000000" stroke-width="1" stroke-opacity="0"></use></g></g><g><use xlink:href="#k1f5QS2D10" opacity="1" fill="#8fdb5e" fill-opacity="1"></use><g><use xlink:href="#k1f5QS2D10" opacity="1" fill-opacity="0" stroke="#000000" stroke-width="1" stroke-opacity="0"></use></g></g><g><use xlink:href="#bvmoRt1Xy" opacity="1" fill="#1e8c0e" fill-opacity="1"></use><g><use xlink:href="#bvmoRt1Xy" opacity="1" fill-opacity="0" stroke="#000000" stroke-width="1" stroke-opacity="0"></use></g></g><g><use xlink:href="#e6FAeJhweZ" opacity="1" fill="#68e1fd" fill-opacity="1"></use><g><use xlink:href="#e6FAeJhweZ" opacity="1" fill-opacity="0" stroke="#000000" stroke-width="1" stroke-opacity="0"></use></g></g><g><use xlink:href="#b1drC2ONYs" opacity="1" fill="#34323d" fill-opacity="1"></use><g><use xlink:href="#b1drC2ONYs" opacity="1" fill-opacity="0" stroke="#000000" stroke-width="1" stroke-opacity="0"></use></g></g><g><use xlink:href="#aEYo5ToED" opacity="1" fill="#1e8c0e" fill-opacity="1"></use><g><use xlink:href="#aEYo5ToED" opacity="1" fill-opacity="0" stroke="#000000" stroke-width="1" stroke-opacity="0"></use></g></g><g><use xlink:href="#dLaB2N8AF" opacity="1" fill="#1e8c0e" fill-opacity="1"></use><g><use xlink:href="#dLaB2N8AF" opacity="1" fill-opacity="0" stroke="#000000" stroke-width="1" stroke-opacity="0"></use></g></g><g><use xlink:href="#a1iBOWeCQw" opacity="1" fill="#8fdb5e" fill-opacity="1"></use><g><use xlink:href="#a1iBOWeCQw" opacity="1" fill-opacity="0" stroke="#000000" stroke-width="1" stroke-opacity="0"></use></g></g><g><use xlink:href="#b1busNfGUR" opacity="1" fill="#1e8c0e" fill-opacity="1"></use><g><use xlink:href="#b1busNfGUR" opacity="1" fill-opacity="0" stroke="#000000" stroke-width="1" stroke-opacity="0"></use></g></g></g></g></svg>