<svg xmlns="http://www.w3.org/2000/svg" xmlns:xlink="http://www.w3.org/1999/xlink" preserveAspectRatio="xMidYMid meet" viewBox="0 0 640 580" width="640" height="580"><defs><path d="M8.72 335.48L393.98 557.9L630.76 423.42L243.75 201.26L243.75 201.26L8.72 335.48Z" id="c9fOaII9e"></path><path d="M473.33 466.93L359.83 531.29L251.57 463.94L354.51 412.94" id="b2OH88JXTO"></path><linearGradient id="gradienteyO7uO4QM" gradientUnits="userSpaceOnUse" x1="311.81" y1="533.68" x2="359.73" y2="469.1"><stop style="stop-color: #ffffff;stop-opacity: 0" offset="0%"></stop><stop style="stop-color: #d43500;stop-opacity: 1" offset="100%"></stop></linearGradient><path d="M254.85 361.09L164.91 417.93L74.98 370.36L177.9 319.37" id="af3d4HiHm"></path><linearGradient id="gradientc8JtVBsoC" gradientUnits="userSpaceOnUse" x1="143.56" y1="396.1" x2="174.22" y2="352.5"><stop style="stop-color: #ffffff;stop-opacity: 0" offset="0%"></stop><stop style="stop-color: #d43500;stop-opacity: 1" offset="100%"></stop></linearGradient><path d="M261.06 19.16L261.06 189.19L464.2 304.05L464.2 140.42L464.2 140.42L261.06 19.16Z" id="a4q0rsCnrv"></path><path d="M276.7 46.36L276.7 187.67" id="c7ebEaCpN"></path><path d="M311.79 68.3L311.79 209.63" id="b39wr6RPmA"></path><path d="M366.66 100.93L366.66 242.25" id="a6nzwoGoLL"></path><path d="M406.31 122.46L406.31 263.79" id="b1vSSA8qYo"></path><path d="M441.8 145.42L441.8 286.76" id="a1cN5C00K7"></path><path d="M585.03 339.64C592.16 335.13 578.01 336.37 575.93 336.82C573.84 337.28 567.75 346.97 567.75 346.97C573.79 345.24 579.59 342.78 585.03 339.64Z" id="b8CNeX4aH"></path><path d="M528.28 192.28C535.86 189.46 543.84 187.91 551.92 187.71C566.51 187.04 538.47 198.56 538.47 198.56" id="h1Lc1BLOcS"></path><path d="M612.5 255.09C621.06 297.67 604.86 336.85 576.31 342.59C547.77 348.33 517.68 318.46 509.12 275.88C500.56 233.3 516.76 194.13 545.31 188.39C573.85 182.65 603.94 212.51 612.5 255.09Z" id="c1zInXnjc0"></path><path d="M600.99 258.8C609.7 302.11 593.61 341.87 565.07 347.61C536.52 353.35 506.32 322.9 497.61 279.59C488.9 236.29 504.98 196.53 533.53 190.79C562.08 185.05 592.28 215.5 600.99 258.8Z" id="agpLgpluI"></path><path d="M549.3 269.29C549.3 222.9 549.3 197.14 549.3 191.98C549.3 191.98 530.53 182.21 508.77 207.88C514.17 216.07 527.68 236.54 549.3 269.29Z" id="o1bzMov6is"></path><path d="M549.3 269.29C581.37 284.18 599.19 292.45 602.75 294.1C602.75 294.1 610.47 212.21 549.36 191.18C549.35 201.59 549.33 227.63 549.3 269.29Z" id="b1g9sGabV6"></path><path d="M552.27 421.26L405.58 506.14L302.08 444.36L447.53 361.09L447.53 361.09L552.27 421.26Z" id="adi0VQLkJ"></path><path d="M302.08 444.36L325.95 432.6L302.08 420.84L302.08 420.84L302.08 444.36Z" id="b1HNA1yRUX"></path><path d="M552.27 421.26L528.17 410.11L552.27 397.74L552.27 397.74L552.27 421.26Z" id="bDgFK4HvS"></path><path d="M552.27 397.74L405.58 482.63L302.08 420.84L447.53 337.57L447.53 337.57L552.27 397.74Z" id="cSxJSXEc3"></path><path d="M321.9 409.5C312.86 411.06 307.83 411.92 306.83 412.1C306.83 412.1 317.96 429.67 326.29 435.24C321.35 428.23 322.15 419.17 322.19 410.96C322.15 410.76 322.05 410.28 321.9 409.5Z" id="eWzTFEbLX"></path><path d="M437.92 354.45L490.45 384.64" id="bKq7pqpg"></path><path d="M489.72 385.92C490.43 386.34 491.34 386.1 491.75 385.39C492.16 384.68 491.92 383.78 491.22 383.36C485.96 380.34 443.93 356.19 438.67 353.17C437.96 352.76 437.06 352.99 436.64 353.7C436.23 354.41 436.47 355.32 437.17 355.73C447.68 361.77 484.47 382.9 489.72 385.92Z" id="f1FXEv2Ttn"></path><path d="M431.09 358.92L515.6 407.49" id="d6gLadj8m9"></path><path d="M514.85 408.75C515.56 409.16 516.47 408.92 516.88 408.22C517.29 407.51 517.06 406.6 516.35 406.19C507.9 401.33 440.29 362.49 431.84 357.64C431.13 357.23 430.22 357.46 429.81 358.17C429.39 358.88 429.63 359.79 430.34 360.2C447.24 369.91 506.4 403.89 514.85 408.75Z" id="cIsKVSor"></path><path d="M424.25 364.1L508.77 412.67" id="iRLUxhZ20"></path><path d="M508.04 413.93C508.74 414.34 509.65 414.1 510.07 413.4C510.48 412.69 510.24 411.78 509.53 411.37C501.08 406.52 433.46 367.69 425 362.84C424.29 362.43 423.39 362.66 422.97 363.37C422.56 364.08 422.8 364.99 423.51 365.4C423.51 365.4 499.59 409.07 508.04 413.93Z" id="b2LYB7uq3i"></path><path d="M417.3 368.39L501.81 416.94" id="a7wQHFR8k"></path><path d="M501.07 418.28C501.77 418.7 502.68 418.46 503.09 417.75C503.51 417.04 503.27 416.13 502.56 415.72C494.11 410.87 426.5 372.03 418.05 367.17C417.34 366.76 416.43 367 416.02 367.7C415.61 368.41 415.85 369.32 416.55 369.73C433.46 379.44 492.61 413.43 501.07 418.28Z" id="e1TGwiRRT"></path><path d="M400.4 388.15L406.31 391.56L382.4 405.2L376.55 401.88L376.55 401.88L400.4 388.15Z" id="f76U9Ud9sn"></path><path d="M429.49 385.82L435.15 389.45L393.37 413.3L387.44 410.03L387.44 410.03L429.49 385.82Z" id="h7r54lwfH"></path><path d="M425.67 403.1L432.07 406.23L406.31 420.94L400.4 417.63L400.4 417.63L425.67 403.1Z" id="bdExyhW8Z"></path><path d="M446.55 404.81L452.79 408.06L419.13 427.3L413.18 424.01L413.18 424.01L446.55 404.81Z" id="bxirT1zkv"></path><path d="M437.92 424.54L443.95 427.83L431.5 434.94L425.63 431.62L425.63 431.62L437.92 424.54Z" id="ap0tkhHC4"></path><path d="M482.55 414.76L488.22 418.38L446.51 442.21L440.5 438.96L440.5 438.96L482.55 414.76Z" id="a8zGWMFcij"></path><path d="M353.41 403.98L405.96 434.18" id="c6spktYbJ"></path><path d="M405.17 435.38C405.88 435.79 406.78 435.55 407.2 434.85C407.61 434.14 407.37 433.23 406.67 432.82C401.41 429.8 359.37 405.64 354.12 402.62C353.41 402.21 352.5 402.45 352.09 403.16C351.68 403.86 351.91 404.77 352.62 405.18C363.13 411.22 399.91 432.36 405.17 435.38Z" id="b1SiLPHu2l"></path><path d="M346.58 408.47L431.09 457.02" id="d1iu2ZEA9l"></path><path d="M430.34 458.36C431.05 458.78 431.95 458.54 432.37 457.83C432.78 457.12 432.54 456.21 431.84 455.8C423.38 450.94 355.77 412.02 347.32 407.15C346.62 406.74 345.71 406.98 345.3 407.69C344.88 408.39 345.12 409.3 345.83 409.71C345.83 409.72 421.89 453.5 430.34 458.36Z" id="i2vXCpq2XU"></path><path d="M339.74 413.65L424.25 462.2" id="b70fP9gyY1"></path><path d="M423.52 463.48C424.23 463.9 425.14 463.66 425.55 462.95C425.97 462.24 425.73 461.34 425.02 460.92C416.57 456.07 348.96 417.23 340.51 412.37C339.8 411.96 338.89 412.2 338.48 412.91C338.07 413.61 338.31 414.52 339.01 414.93C355.91 424.64 415.07 458.63 423.52 463.48Z" id="eHSw3EoSN"></path><path d="M332.79 417.93L417.3 466.48" id="acAF8CwbK"></path><path d="M416.55 467.76C417.26 468.17 418.17 467.93 418.58 467.22C418.99 466.52 418.76 465.61 418.05 465.2C409.6 460.34 341.99 421.5 333.54 416.65C332.83 416.23 331.92 416.47 331.51 417.18C331.1 417.89 331.33 418.79 332.04 419.21C348.94 428.92 408.1 462.9 416.55 467.76Z" id="b9Yb3OAsg"></path><path d="M552.27 403.1L406.31 487.98L302.08 427.3" id="c2CxT3CrK"></path><path d="M551.76 408.47L405.8 493.36L301.55 432.68" id="c3IaFdoWyT"></path><path d="M551.76 416.23L405.8 501.1L301.55 440.42" id="dfVlAfnhe"></path><path d="M561.9 430.59L577.33 428.21L563.89 441.88" id="a3cF6vCtB"></path><path d="M566.49 436.54C566.49 439.82 564.44 442.49 561.9 442.49C559.37 442.49 557.31 439.82 557.31 436.54C557.31 433.25 559.37 430.59 561.9 430.59C564.44 430.59 566.49 433.25 566.49 436.54Z" id="gNmh7YRR7"></path><path d="M563.89 441.88L560.19 431.02L424.88 512.03L428.43 523L428.43 523L563.89 441.88Z" id="bkdU0sbDX"></path><path d="M431.25 517.51C431.25 520.79 429.19 523.45 426.66 523.45C424.12 523.45 422.07 520.79 422.07 517.51C422.07 514.22 424.12 511.56 426.66 511.56C429.19 511.56 431.25 514.22 431.25 517.51Z" id="dop9HgXqw"></path><path d="M577.33 428.21C573.78 428.75 571.81 429.05 571.42 429.11C572.77 429.66 573.46 431.18 572.97 432.56C573.55 431.98 575 430.53 577.33 428.21Z" id="a6cUi2vYJ"></path><path d="M240.67 351.32L238.88 349.96L240.48 328.63C246.11 328.83 249.25 328.94 249.87 328.96C249.87 328.96 249.4 338.08 251.41 340.31C251.41 340.31 259.05 341.45 259.58 341.67C259.58 341.67 263.87 341.08 265.49 342.91C265.49 342.91 259.38 349.11 255.46 349.74C252.78 350.09 250.06 349.99 247.41 349.47C247.41 349.47 246.96 343.95 245.58 344.39C245.58 344.39 243.61 350.59 243.61 350.59C243.22 350.69 242.24 350.93 240.67 351.32Z" id="a2wecFEsx"></path><path d="M235.22 335.54C235.22 335.54 240.32 342.47 254.15 339.48C255.62 339.17 258.93 303.6 260.55 285.08C252.81 282.98 244.69 282.66 236.81 284.14C236.05 306.45 235.54 325.26 235.22 335.54Z" id="b5ZYqN6t8S"></path><path d="M265.15 369.73L263.36 368.37L264.96 347.04C270.59 347.24 273.73 347.36 274.35 347.38C274.35 347.38 273.88 356.5 275.89 358.72C275.89 358.72 283.53 359.87 284.06 360.08C284.06 360.08 288.36 359.49 289.97 361.32C289.97 361.32 283.87 367.53 279.95 368.16C277.25 368.46 274.52 368.33 271.87 367.76C271.87 367.76 271.42 362.25 270.04 362.68C270.04 362.68 268.07 368.89 268.07 368.89C267.68 369 266.71 369.28 265.15 369.73Z" id="b5KnDg3uS"></path><path d="M249.64 283.33C250.78 291.68 251.84 297.47 252.02 297.9C252.47 298.97 261.06 351.99 261.06 351.99C271.2 356.08 283.2 352.66 283.2 352.66C283.2 352.66 279.06 311.3 278.73 304.38C278.73 303.26 278.62 302.38 278.61 302.16C278.31 296.12 274.68 290.74 269.19 288.19C263.02 285.4 256.39 283.75 249.64 283.33Z" id="b2W12O8aZA"></path><path d="M206.88 300.52C206.88 300.52 224.07 284.96 236.87 284.14C236.87 284.14 267.91 296.58 266.42 304.31C266.42 304.31 240.48 328.61 240.48 328.61" id="alLt8Y2aB"></path><path d="M228.19 263.08C227.06 262.28 226.65 260.78 227.22 259.52C228.19 257.35 235.96 240.02 236.93 237.85C237.59 236.39 239.32 235.73 240.79 236.39C240.9 236.44 241.02 236.51 241.13 236.57C242.66 237.53 254.9 245.15 256.43 246.11C257.72 246.91 258.18 248.58 257.47 249.93C256.34 252.09 247.3 269.42 246.17 271.59C245.46 273.04 243.71 273.63 242.27 272.92C242.17 272.87 242.07 272.81 241.97 272.75C239.22 270.82 229.57 264.05 228.19 263.08Z" id="a3SB3sStEQ"></path><path d="M226.97 262.33C225.84 261.53 225.43 260.04 226 258.77C226.97 256.6 234.74 239.27 235.71 237.1C236.37 235.64 238.1 234.98 239.57 235.64C239.68 235.7 239.8 235.76 239.91 235.82C241.44 236.78 253.68 244.4 255.21 245.36C256.5 246.16 256.96 247.83 256.25 249.18C255.12 251.34 246.08 268.68 244.95 270.84C244.24 272.29 242.49 272.88 241.04 272.17C240.94 272.12 240.85 272.07 240.75 272C238 270.07 228.34 263.3 226.97 262.33Z" id="i13CXTvFdo"></path><path d="M227.62 259.79L237.72 237.32L254.85 248L243.04 270.69L243.04 270.69L227.62 259.79Z" id="cvyxZ3YlL"></path><path d="M217.47 256.52C216.61 257.12 215.33 259.16 216.17 258.87C215.82 259.28 219.32 260.66 218.99 261.11C218.87 261.27 221.25 259.95 221.39 260.01C221.39 260.01 221.39 260.01 221.39 260.01C223.41 261.08 225.76 261.36 227.97 260.8C228.03 260.75 228.32 260.54 228.86 260.15L228.86 260.15C228.99 260.07 229.06 260.02 229.07 260.01C229.11 259.95 229.17 259.89 229.23 259.85C229.24 259.85 229.35 259.85 229.37 259.85C229.39 259.73 229.46 259.62 229.57 259.54C230.75 258.61 233.33 258.12 233.6 256.56C233.56 256.15 233.43 255.75 233.23 255.38C233.07 255.21 233.07 254.94 233.23 254.77C233.42 253.83 233.23 252.85 232.7 252.05C232.7 252.05 232.7 252.05 232.7 252.05C232.87 251.84 232.97 251.72 232.99 251.7C234.38 250.72 235.7 249.64 236.93 248.47C237.07 248.34 237.16 248.17 237.19 247.98C237.19 247.98 237.19 247.98 237.19 247.98C237.19 247.92 237.19 247.87 237.19 247.82C237.22 247.29 236.81 246.83 236.28 246.8C236.15 246.8 236.03 246.81 235.91 246.85C230.81 249.65 222.83 252.76 217.47 256.52Z" id="a4edmUU2m"></path><path d="M231.48 251.72C229.69 252.52 227.99 253.49 226.39 254.61C226.12 254.79 226.39 255.22 226.67 255.05C227.67 254.36 231.97 251.11 232.83 252.59C233.7 254.06 230.87 254.95 230.02 255.36C229.71 255.53 227.22 256.85 226.91 257.02C226.61 257.17 226.91 257.61 227.18 257.45C227.38 257.35 228.96 256.53 229.15 256.43C229.14 256.48 229.14 256.53 229.15 256.58C229.32 256.81 229.52 257.01 229.74 257.17C229.39 257.7 229.31 258.36 229.53 258.95C229.53 258.96 229.53 259.05 229.53 259.07C227.77 260.92 224.97 261.33 222.75 260.05C222.49 259.85 222.14 260.23 222.4 260.42C224.87 261.96 228.1 261.47 230 259.26C230.32 259.22 230.62 259.12 230.9 258.97C231.82 258.65 232.65 258.11 233.31 257.39C233.66 256.78 233.66 256.03 233.31 255.42C233.31 255.42 233.31 255.42 233.31 255.42C233.81 254.94 233.82 254.14 233.34 253.64C233.33 253.63 233.32 253.62 233.31 253.61C233.44 253.21 233.44 252.77 233.31 252.37C232.93 251.38 232.36 251.34 231.48 251.72ZM231.79 258C231.46 258.2 230.67 258.75 230.33 258.67C229.68 258.51 230.08 257.65 230.33 257.27C230.33 257.27 230.33 257.27 230.33 257.27C230.7 257.13 231.04 256.93 231.34 256.68C231.42 256.63 231.83 256.37 232.58 255.89C232.83 255.71 232.96 255.6 232.99 255.58C233.24 256 233.28 256.51 233.09 256.96C232.76 257.4 232.31 257.77 231.79 258ZM229.55 256.21C230.53 255.7 231.52 255.19 232.46 254.61C232.75 254.45 232.99 254.23 233.19 253.96C233.72 254.85 232.03 255.68 231.52 256.01C230.81 256.43 230.24 256.98 229.55 256.21Z" id="c3GC4vONTe"></path><path d="M224.37 260.68C224.19 261.11 223.33 263.24 221.79 267.08C213.38 262.72 208.72 260.3 207.78 259.81C207.78 259.81 211.13 255.6 220.66 252.68C221.4 254.28 224.11 253.45 224.37 260.68Z" id="f2aKEsuMsP"></path><path d="M250.9 262.81C250.25 261.25 249.65 259.97 248.93 258.47C248.89 258.43 248.85 258.38 248.81 258.34C248.47 257.77 247.73 257.58 247.16 257.92C246.76 258.16 246.53 258.62 246.58 259.08C246.83 260.5 247.39 261.85 248.22 263.02C248.1 263.09 247.99 263.17 247.9 263.26C245.93 265.51 246.37 268.93 246.6 271.69C246.64 272.28 247.15 272.72 247.74 272.68C247.9 272.67 248.06 272.62 248.2 272.54C248.39 272.54 248.58 272.49 248.75 272.4C250.56 271.15 251.86 269.28 252.39 267.14C253.57 263.65 255.03 259.77 253.85 256.05C252.81 258.36 251.76 260.44 250.9 262.81Z" id="a1iq7sHc3C"></path><path d="M206.64 254.4C207.9 254.57 218.85 259.05 223.4 266.84C223.96 269.22 224.33 271.64 224.52 274.07C224.94 277.32 225.27 280.57 225.43 283.92C225.64 287.48 225.59 291.05 225.27 294.6C225.11 296.11 225.02 296.88 224.76 298.38C224.18 298.89 223.51 299.29 222.79 299.58C207.61 304.86 196.46 296.31 196 295.09C195.55 293.87 194.82 276.34 194.47 265.92C194.27 261.35 197.2 257.22 201.58 255.89C202.59 255.59 206.13 254.55 206.64 254.4Z" id="fv1D9WLNs"></path><path d="M212.06 256.78C212.06 256.78 198.27 251.48 197.76 247.96C197.25 244.43 206.11 232.12 214.97 237.77C214.39 241.58 218.38 254.93 212.06 256.78Z" id="a2IVUw3rVw"></path><path d="M217.12 240.39C217.89 237.32 215.15 233.32 208.79 232.73C202.43 232.14 191.85 235.61 193.48 252.25C195.12 268.89 211.88 261.74 212.96 256.43C213.54 252.53 213.4 248.55 212.53 244.71C212.73 244.41 216.35 243.47 217.12 240.39Z" id="c14CVcnXIO"></path><path d="M212.53 244.71C212.53 244.71 213.59 250.4 215.9 252.84C215.9 252.84 220.07 259.73 217.24 263.12C217.24 263.12 217.24 268.36 221.18 271.61C221.18 271.61 222.71 288.06 208.29 284.83C200.16 283.2 192.76 279.01 187.18 272.87C187.18 272.87 190.88 246.95 194.8 240.87" id="a5bUecmrJ"></path><path d="M223.44 267.08C223.44 267.08 226.71 278.01 229.96 278.35C229.96 278.35 238.17 273.86 241.64 267.55C246.67 267.07 251.15 270.76 251.63 275.8C251.65 275.97 251.66 276.14 251.66 276.32C251.66 276.32 240.18 299.6 223.44 293.91" id="a79Q1ajp3"></path><path d="M243.7 247.11C246.68 248.27 248 252.02 246.65 255.49C245.3 258.95 241.79 260.82 238.81 259.66C235.83 258.5 234.51 254.75 235.86 251.28C237.21 247.81 240.72 245.95 243.7 247.11Z" id="a2FzXdn5D"></path><path d="M239.14 251.09L239.89 253.65L245.77 251.54L246.03 253.35L238.86 255.97L237.33 251.66L237.33 251.66L239.14 251.09Z" id="i1jVOpjSgF"></path><path d="M148.46 304.74C148.57 291.43 153.78 278.66 163.02 269.07C171.5 260.37 184.33 256.07 195.69 261.98C205.12 266.88 209.69 276.28 212.98 285.91C216.92 297.43 218.26 312.22 232.3 315.79C237.76 317.17 243.47 316.22 249.08 315.79C258.93 315.12 269.19 318.29 272.23 328.73C277.68 347.4 252.53 363.33 238.45 369.36C213.44 379.64 184.67 373.42 166.15 353.72C165.15 352.67 164.19 351.57 163.27 350.43C153.07 330.96 148.13 315.73 148.46 304.74Z" id="a54jhY3gnw"></path><path d="M211.54 354.33C195.45 353.5 185.29 343.68 186.37 327.39C186.98 318.45 189.82 309.52 189.01 300.52C187.65 285.18 173.08 272.6 158.21 275.59C151.89 284.4 148.45 294.94 148.36 305.78C147.87 322.27 153.1 338.41 163.17 351.48C164.55 353.19 165.76 354.49 166.05 354.82C184.57 374.52 213.34 380.75 238.35 370.46C252.47 364.43 277.58 348.5 272.13 329.83C271.97 329.53 271.87 329.3 271.77 329.02C261.79 347.08 229.27 355.24 211.54 354.33Z" id="awnRzNQv7"></path><path d="M279.75 166.58C279.75 166.58 288.73 122.68 306.75 130.63C325.86 139.06 308.46 175.24 329.18 186.02C349.25 196.45 343.42 120.11 366.61 129.12C387.32 137.15 379.58 167.99 379.6 183.75C379.6 191.04 377.14 218.02 391.32 222.16C416.12 229.38 405.84 155.07 437.8 171.95" id="c6KBJym64"></path><path d="M283.73 166.89C283.73 169.48 281.99 171.58 279.85 171.58C277.7 171.58 275.97 169.48 275.97 166.89C275.97 164.3 277.7 162.2 279.85 162.2C281.99 162.2 283.73 164.3 283.73 166.89Z" id="g27FaKPWmd"></path><path d="M441.8 173C441.8 175.59 440.06 177.68 437.92 177.68C435.78 177.68 434.04 175.59 434.04 173C434.04 170.41 435.78 168.31 437.92 168.31C440.06 168.31 441.8 170.41 441.8 173Z" id="aX8CCj8I"></path><path d="M353.17 145.42C353.17 148.01 351.44 150.11 349.29 150.11C347.15 150.11 345.41 148.01 345.41 145.42C345.41 142.83 347.15 140.74 349.29 140.74C351.44 140.74 353.17 142.83 353.17 145.42Z" id="ecjYwXRn2"></path><path d="M383.72 177.68C383.72 180.27 381.98 182.37 379.84 182.37C377.7 182.37 375.96 180.27 375.96 177.68C375.96 175.1 377.7 173 379.84 173C381.98 173 383.72 175.1 383.72 177.68Z" id="f1n1tFOjCT"></path><path d="M199.23 67.8C201.38 66.57 204.11 67.31 205.34 69.46C205.74 70.15 205.94 70.94 205.93 71.74C205.93 75.68 205.93 107.19 205.93 111.13C205.93 115.02 203.83 118.61 200.44 120.51C190.12 126.28 107.61 172.41 97.29 178.18C95.14 179.38 92.41 178.62 91.21 176.46C90.82 175.78 90.63 175.02 90.63 174.24C90.63 170.09 90.63 136.89 90.63 132.74C90.63 131.14 91.49 129.66 92.88 128.86C92.88 128.86 188.6 73.91 199.23 67.8Z" id="d2AgR3JSNE"></path><path d="M100.46 169.79L100.46 192.83L119.69 164.17" id="b2yCUKGIlX"></path><path d="M191.95 88.68L135.5 120.15" id="jg3tlAzQO"></path><path d="M134 117.63C130.68 119.48 133.65 124.59 136.98 122.73C142.62 119.58 187.78 94.37 193.42 91.22C196.75 89.37 193.78 84.27 190.45 86.12C179.16 92.42 139.65 114.48 134 117.63Z" id="dFoOiLn4D"></path><path d="M194.41 104.42L109.09 152" id="czrhPIYCK"></path><path d="M107.59 149.44C104.26 151.29 107.24 156.39 110.57 154.54C119.1 149.78 187.35 111.72 195.89 106.96C199.22 105.11 196.24 100.01 192.91 101.86C192.91 101.86 116.12 144.68 107.59 149.44Z" id="jgXdFAORH"></path><path d="M84.12 189.76C96 201.64 93.84 223.05 79.31 237.59C64.77 252.12 43.36 254.28 31.48 242.4C19.61 230.53 21.76 209.12 36.3 194.58C50.84 180.04 72.25 177.89 84.12 189.76Z" id="cUW9wMHYT"></path><path d="M43.03 248.71C41.83 253 32.2 287.35 31 291.64C33.16 298.16 39.68 294.83 39.68 294.83C41.01 290.23 51.65 253.41 52.98 248.8C52.9 248.86 52.82 248.9 52.74 248.94C49.59 250.06 46.13 249.98 43.03 248.71Z" id="a3Rrfegpd"></path></defs><g><g><g><use xlink:href="#c9fOaII9e" opacity="1" fill="#ffb844" fill-opacity="1"></use><g><use xlink:href="#c9fOaII9e" opacity="1" fill-opacity="0" stroke="#000000" stroke-width="1" stroke-opacity="0"></use></g></g><g><use xlink:href="#b2OH88JXTO" opacity="1" fill="url(#gradienteyO7uO4QM)"></use><g><use xlink:href="#b2OH88JXTO" opacity="1" fill-opacity="0" stroke="#000000" stroke-width="1" stroke-opacity="0"></use></g></g><g><use xlink:href="#af3d4HiHm" opacity="1" fill="url(#gradientc8JtVBsoC)"></use><g><use xlink:href="#af3d4HiHm" opacity="1" fill-opacity="0" stroke="#000000" stroke-width="1" stroke-opacity="0"></use></g></g><g><use xlink:href="#a4q0rsCnrv" opacity="1" fill="#68e1fd" fill-opacity="1"></use><g><use xlink:href="#a4q0rsCnrv" opacity="1" fill-opacity="0" stroke="#000000" stroke-width="1" stroke-opacity="0"></use></g></g><g><use xlink:href="#c7ebEaCpN" opacity="1" fill="#000000" fill-opacity="0"></use><g><use xlink:href="#c7ebEaCpN" opacity="1" fill-opacity="0" stroke="#29abe2" stroke-width="1" stroke-opacity="1"></use></g></g><g><use xlink:href="#b39wr6RPmA" opacity="1" fill="#000000" fill-opacity="0"></use><g><use xlink:href="#b39wr6RPmA" opacity="1" fill-opacity="0" stroke="#29abe2" stroke-width="1" stroke-opacity="1"></use></g></g><g><use xlink:href="#a6nzwoGoLL" opacity="1" fill="#000000" fill-opacity="0"></use><g><use xlink:href="#a6nzwoGoLL" opacity="1" fill-opacity="0" stroke="#29abe2" stroke-width="1" stroke-opacity="1"></use></g></g><g><use xlink:href="#b1vSSA8qYo" opacity="1" fill="#000000" fill-opacity="0"></use><g><use xlink:href="#b1vSSA8qYo" opacity="1" fill-opacity="0" stroke="#29abe2" stroke-width="1" stroke-opacity="1"></use></g></g><g><use xlink:href="#a1cN5C00K7" opacity="1" fill="#000000" fill-opacity="0"></use><g><use xlink:href="#a1cN5C00K7" opacity="1" fill-opacity="0" stroke="#29abe2" stroke-width="1" stroke-opacity="1"></use></g></g><g><use xlink:href="#b8CNeX4aH" opacity="1" fill="#ffa515" fill-opacity="1"></use><g><use xlink:href="#b8CNeX4aH" opacity="1" fill-opacity="0" stroke="#000000" stroke-width="1" stroke-opacity="0"></use></g></g><g><use xlink:href="#h1Lc1BLOcS" opacity="1" fill="#ffa515" fill-opacity="1"></use><g><use xlink:href="#h1Lc1BLOcS" opacity="1" fill-opacity="0" stroke="#000000" stroke-width="1" stroke-opacity="0"></use></g></g><g><use xlink:href="#c1zInXnjc0" opacity="1" fill="#ffa515" fill-opacity="1"></use><g><use xlink:href="#c1zInXnjc0" opacity="1" fill-opacity="0" stroke="#000000" stroke-width="1" stroke-opacity="0"></use></g></g><g><use xlink:href="#agpLgpluI" opacity="1" fill="#fcb632" fill-opacity="1"></use><g><use xlink:href="#agpLgpluI" opacity="1" fill-opacity="0" stroke="#000000" stroke-width="1" stroke-opacity="0"></use></g></g><g><use xlink:href="#o1bzMov6is" opacity="1" fill="#68e1fd" fill-opacity="1"></use><g><use xlink:href="#o1bzMov6is" opacity="1" fill-opacity="0" stroke="#000000" stroke-width="1" stroke-opacity="0"></use></g></g><g><use xlink:href="#b1g9sGabV6" opacity="1" fill="#db5db6" fill-opacity="1"></use><g><use xlink:href="#b1g9sGabV6" opacity="1" fill-opacity="0" stroke="#000000" stroke-width="1" stroke-opacity="0"></use></g></g><g><use xlink:href="#adi0VQLkJ" opacity="1" fill="#d8d5d0" fill-opacity="1"></use><g><use xlink:href="#adi0VQLkJ" opacity="1" fill-opacity="0" stroke="#000000" stroke-width="1" stroke-opacity="0"></use></g></g><g><use xlink:href="#b1HNA1yRUX" opacity="1" fill="#d8d5d0" fill-opacity="1"></use><g><use xlink:href="#b1HNA1yRUX" opacity="1" fill-opacity="0" stroke="#000000" stroke-width="1" stroke-opacity="0"></use></g></g><g><use xlink:href="#bDgFK4HvS" opacity="1" fill="#d8d5d0" fill-opacity="1"></use><g><use xlink:href="#bDgFK4HvS" opacity="1" fill-opacity="0" stroke="#000000" stroke-width="1" stroke-opacity="0"></use></g></g><g><use xlink:href="#cSxJSXEc3" opacity="1" fill="#eaeaea" fill-opacity="1"></use><g><use xlink:href="#cSxJSXEc3" opacity="1" fill-opacity="0" stroke="#000000" stroke-width="1" stroke-opacity="0"></use></g></g><g><use xlink:href="#eWzTFEbLX" opacity="1" fill="#d8d5d0" fill-opacity="1"></use><g><use xlink:href="#eWzTFEbLX" opacity="1" fill-opacity="0" stroke="#000000" stroke-width="1" stroke-opacity="0"></use></g></g><g><use xlink:href="#bKq7pqpg" opacity="1" fill="#d8d5d0" fill-opacity="1"></use><g><use xlink:href="#bKq7pqpg" opacity="1" fill-opacity="0" stroke="#000000" stroke-width="1" stroke-opacity="0"></use></g></g><g><use xlink:href="#f1FXEv2Ttn" opacity="1" fill="#cccccc" fill-opacity="1"></use><g><use xlink:href="#f1FXEv2Ttn" opacity="1" fill-opacity="0" stroke="#000000" stroke-width="1" stroke-opacity="0"></use></g></g><g><use xlink:href="#d6gLadj8m9" opacity="1" fill="#d8d5d0" fill-opacity="1"></use><g><use xlink:href="#d6gLadj8m9" opacity="1" fill-opacity="0" stroke="#000000" stroke-width="1" stroke-opacity="0"></use></g></g><g><use xlink:href="#cIsKVSor" opacity="1" fill="#cccccc" fill-opacity="1"></use><g><use xlink:href="#cIsKVSor" opacity="1" fill-opacity="0" stroke="#000000" stroke-width="1" stroke-opacity="0"></use></g></g><g><use xlink:href="#iRLUxhZ20" opacity="1" fill="#d8d5d0" fill-opacity="1"></use><g><use xlink:href="#iRLUxhZ20" opacity="1" fill-opacity="0" stroke="#000000" stroke-width="1" stroke-opacity="0"></use></g></g><g><use xlink:href="#b2LYB7uq3i" opacity="1" fill="#cccccc" fill-opacity="1"></use><g><use xlink:href="#b2LYB7uq3i" opacity="1" fill-opacity="0" stroke="#000000" stroke-width="1" stroke-opacity="0"></use></g></g><g><use xlink:href="#a7wQHFR8k" opacity="1" fill="#d8d5d0" fill-opacity="1"></use><g><use xlink:href="#a7wQHFR8k" opacity="1" fill-opacity="0" stroke="#000000" stroke-width="1" stroke-opacity="0"></use></g></g><g><use xlink:href="#e1TGwiRRT" opacity="1" fill="#cccccc" fill-opacity="1"></use><g><use xlink:href="#e1TGwiRRT" opacity="1" fill-opacity="0" stroke="#000000" stroke-width="1" stroke-opacity="0"></use></g></g><g><use xlink:href="#f76U9Ud9sn" opacity="1" fill="#68e1fd" fill-opacity="1"></use><g><use xlink:href="#f76U9Ud9sn" opacity="1" fill-opacity="0" stroke="#000000" stroke-width="1" stroke-opacity="0"></use></g></g><g><use xlink:href="#h7r54lwfH" opacity="1" fill="#68e1fd" fill-opacity="1"></use><g><use xlink:href="#h7r54lwfH" opacity="1" fill-opacity="0" stroke="#000000" stroke-width="1" stroke-opacity="0"></use></g></g><g><use xlink:href="#bdExyhW8Z" opacity="1" fill="#68e1fd" fill-opacity="1"></use><g><use xlink:href="#bdExyhW8Z" opacity="1" fill-opacity="0" stroke="#000000" stroke-width="1" stroke-opacity="0"></use></g></g><g><use xlink:href="#bxirT1zkv" opacity="1" fill="#68e1fd" fill-opacity="1"></use><g><use xlink:href="#bxirT1zkv" opacity="1" fill-opacity="0" stroke="#000000" stroke-width="1" stroke-opacity="0"></use></g></g><g><use xlink:href="#ap0tkhHC4" opacity="1" fill="#68e1fd" fill-opacity="1"></use><g><use xlink:href="#ap0tkhHC4" opacity="1" fill-opacity="0" stroke="#000000" stroke-width="1" stroke-opacity="0"></use></g></g><g><use xlink:href="#a8zGWMFcij" opacity="1" fill="#68e1fd" fill-opacity="1"></use><g><use xlink:href="#a8zGWMFcij" opacity="1" fill-opacity="0" stroke="#000000" stroke-width="1" stroke-opacity="0"></use></g></g><g><use xlink:href="#c6spktYbJ" opacity="1" fill="#d8d5d0" fill-opacity="1"></use><g><use xlink:href="#c6spktYbJ" opacity="1" fill-opacity="0" stroke="#000000" stroke-width="1" stroke-opacity="0"></use></g></g><g><use xlink:href="#b1SiLPHu2l" opacity="1" fill="#cccccc" fill-opacity="1"></use><g><use xlink:href="#b1SiLPHu2l" opacity="1" fill-opacity="0" stroke="#000000" stroke-width="1" stroke-opacity="0"></use></g></g><g><use xlink:href="#d1iu2ZEA9l" opacity="1" fill="#d8d5d0" fill-opacity="1"></use><g><use xlink:href="#d1iu2ZEA9l" opacity="1" fill-opacity="0" stroke="#000000" stroke-width="1" stroke-opacity="0"></use></g></g><g><use xlink:href="#i2vXCpq2XU" opacity="1" fill="#cccccc" fill-opacity="1"></use><g><use xlink:href="#i2vXCpq2XU" opacity="1" fill-opacity="0" stroke="#000000" stroke-width="1" stroke-opacity="0"></use></g></g><g><use xlink:href="#b70fP9gyY1" opacity="1" fill="#d8d5d0" fill-opacity="1"></use><g><use xlink:href="#b70fP9gyY1" opacity="1" fill-opacity="0" stroke="#000000" stroke-width="1" stroke-opacity="0"></use></g></g><g><use xlink:href="#eHSw3EoSN" opacity="1" fill="#cccccc" fill-opacity="1"></use><g><use xlink:href="#eHSw3EoSN" opacity="1" fill-opacity="0" stroke="#000000" stroke-width="1" stroke-opacity="0"></use></g></g><g><use xlink:href="#acAF8CwbK" opacity="1" fill="#d8d5d0" fill-opacity="1"></use><g><use xlink:href="#acAF8CwbK" opacity="1" fill-opacity="0" stroke="#000000" stroke-width="1" stroke-opacity="0"></use></g></g><g><use xlink:href="#b9Yb3OAsg" opacity="1" fill="#cccccc" fill-opacity="1"></use><g><use xlink:href="#b9Yb3OAsg" opacity="1" fill-opacity="0" stroke="#000000" stroke-width="1" stroke-opacity="0"></use></g></g><g><use xlink:href="#c2CxT3CrK" opacity="1" fill="#000000" fill-opacity="0"></use><g><use xlink:href="#c2CxT3CrK" opacity="1" fill-opacity="0" stroke="#cccccc" stroke-width="0.5" stroke-opacity="1"></use></g></g><g><use xlink:href="#c3IaFdoWyT" opacity="1" fill="#000000" fill-opacity="0"></use><g><use xlink:href="#c3IaFdoWyT" opacity="1" fill-opacity="0" stroke="#cccccc" stroke-width="0.5" stroke-opacity="1"></use></g></g><g><use xlink:href="#dfVlAfnhe" opacity="1" fill="#000000" fill-opacity="0"></use><g><use xlink:href="#dfVlAfnhe" opacity="1" fill-opacity="0" stroke="#cccccc" stroke-width="0.5" stroke-opacity="1"></use></g></g><g><use xlink:href="#a3cF6vCtB" opacity="1" fill="#ffc65a" fill-opacity="1"></use><g><use xlink:href="#a3cF6vCtB" opacity="1" fill-opacity="0" stroke="#000000" stroke-width="1" stroke-opacity="0"></use></g></g><g><use xlink:href="#gNmh7YRR7" opacity="1" fill="#465ca2" fill-opacity="1"></use><g><use xlink:href="#gNmh7YRR7" opacity="1" fill-opacity="0" stroke="#000000" stroke-width="1" stroke-opacity="0"></use></g></g><g><use xlink:href="#bkdU0sbDX" opacity="1" fill="#465ca2" fill-opacity="1"></use><g><use xlink:href="#bkdU0sbDX" opacity="1" fill-opacity="0" stroke="#000000" stroke-width="1" stroke-opacity="0"></use></g></g><g><use xlink:href="#dop9HgXqw" opacity="1" fill="#283860" fill-opacity="1"></use><g><use xlink:href="#dop9HgXqw" opacity="1" fill-opacity="0" stroke="#000000" stroke-width="1" stroke-opacity="0"></use></g></g><g><use xlink:href="#a6cUi2vYJ" opacity="1" fill="#465ca2" fill-opacity="1"></use><g><use xlink:href="#a6cUi2vYJ" opacity="1" fill-opacity="0" stroke="#000000" stroke-width="1" stroke-opacity="0"></use></g></g><g><use xlink:href="#a2wecFEsx" opacity="1" fill="#9c4100" fill-opacity="1"></use><g><use xlink:href="#a2wecFEsx" opacity="1" fill-opacity="0" stroke="#000000" stroke-width="1" stroke-opacity="0"></use></g></g><g><use xlink:href="#b5ZYqN6t8S" opacity="1" fill="#653200" fill-opacity="1"></use><g><use xlink:href="#b5ZYqN6t8S" opacity="1" fill-opacity="0" stroke="#000000" stroke-width="1" stroke-opacity="0"></use></g></g><g><use xlink:href="#b5KnDg3uS" opacity="1" fill="#9c4100" fill-opacity="1"></use><g><use xlink:href="#b5KnDg3uS" opacity="1" fill-opacity="0" stroke="#000000" stroke-width="1" stroke-opacity="0"></use></g></g><g><use xlink:href="#b2W12O8aZA" opacity="1" fill="#653200" fill-opacity="1"></use><g><use xlink:href="#b2W12O8aZA" opacity="1" fill-opacity="0" stroke="#000000" stroke-width="1" stroke-opacity="0"></use></g></g><g><use xlink:href="#alLt8Y2aB" opacity="1" fill="#653200" fill-opacity="1"></use><g><use xlink:href="#alLt8Y2aB" opacity="1" fill-opacity="0" stroke="#000000" stroke-width="1" stroke-opacity="0"></use></g></g><g><use xlink:href="#a3SB3sStEQ" opacity="1" fill="#1784aa" fill-opacity="1"></use><g><use xlink:href="#a3SB3sStEQ" opacity="1" fill-opacity="0" stroke="#000000" stroke-width="1" stroke-opacity="0"></use></g></g><g><use xlink:href="#i13CXTvFdo" opacity="1" fill="#29abe2" fill-opacity="1"></use><g><use xlink:href="#i13CXTvFdo" opacity="1" fill-opacity="0" stroke="#000000" stroke-width="1" stroke-opacity="0"></use></g></g><g><use xlink:href="#cvyxZ3YlL" opacity="1" fill="#e4f5fd" fill-opacity="1"></use><g><use xlink:href="#cvyxZ3YlL" opacity="1" fill-opacity="0" stroke="#000000" stroke-width="1" stroke-opacity="0"></use></g></g><g><use xlink:href="#a4edmUU2m" opacity="1" fill="#e85454" fill-opacity="1"></use><g><use xlink:href="#a4edmUU2m" opacity="1" fill-opacity="0" stroke="#000000" stroke-width="1" stroke-opacity="0"></use></g></g><g><use xlink:href="#c3GC4vONTe" opacity="1" fill="#653200" fill-opacity="1"></use><g><use xlink:href="#c3GC4vONTe" opacity="1" fill-opacity="0" stroke="#000000" stroke-width="1" stroke-opacity="0"></use></g></g><g><use xlink:href="#f2aKEsuMsP" opacity="1" fill="#88d3d8" fill-opacity="1"></use><g><use xlink:href="#f2aKEsuMsP" opacity="1" fill-opacity="0" stroke="#000000" stroke-width="1" stroke-opacity="0"></use></g></g><g><use xlink:href="#a1iq7sHc3C" opacity="1" fill="#e85454" fill-opacity="1"></use><g><use xlink:href="#a1iq7sHc3C" opacity="1" fill-opacity="0" stroke="#000000" stroke-width="1" stroke-opacity="0"></use></g></g><g><use xlink:href="#fv1D9WLNs" opacity="1" fill="#88d3d8" fill-opacity="1"></use><g><use xlink:href="#fv1D9WLNs" opacity="1" fill-opacity="0" stroke="#000000" stroke-width="1" stroke-opacity="0"></use></g></g><g><use xlink:href="#a2IVUw3rVw" opacity="1" fill="#e85454" fill-opacity="1"></use><g><use xlink:href="#a2IVUw3rVw" opacity="1" fill-opacity="0" stroke="#000000" stroke-width="1" stroke-opacity="0"></use></g></g><g><use xlink:href="#c14CVcnXIO" opacity="1" fill="#653200" fill-opacity="1"></use><g><use xlink:href="#c14CVcnXIO" opacity="1" fill-opacity="0" stroke="#000000" stroke-width="1" stroke-opacity="0"></use></g></g><g><use xlink:href="#a5bUecmrJ" opacity="1" fill="#653200" fill-opacity="1"></use><g><use xlink:href="#a5bUecmrJ" opacity="1" fill-opacity="0" stroke="#000000" stroke-width="1" stroke-opacity="0"></use></g></g><g><use xlink:href="#a79Q1ajp3" opacity="1" fill="#88d3d8" fill-opacity="1"></use><g><use xlink:href="#a79Q1ajp3" opacity="1" fill-opacity="0" stroke="#000000" stroke-width="1" stroke-opacity="0"></use></g></g><g><use xlink:href="#a2FzXdn5D" opacity="1" fill="#1784aa" fill-opacity="1"></use><g><use xlink:href="#a2FzXdn5D" opacity="1" fill-opacity="0" stroke="#000000" stroke-width="1" stroke-opacity="0"></use></g></g><g><use xlink:href="#i1jVOpjSgF" opacity="1" fill="#e4f5fd" fill-opacity="1"></use><g><use xlink:href="#i1jVOpjSgF" opacity="1" fill-opacity="0" stroke="#000000" stroke-width="1" stroke-opacity="0"></use></g></g><g><use xlink:href="#a54jhY3gnw" opacity="1" fill="#7ec971" fill-opacity="1"></use><g><use xlink:href="#a54jhY3gnw" opacity="1" fill-opacity="0" stroke="#000000" stroke-width="1" stroke-opacity="0"></use></g></g><g><use xlink:href="#awnRzNQv7" opacity="1" fill="#61af51" fill-opacity="1"></use><g><use xlink:href="#awnRzNQv7" opacity="1" fill-opacity="0" stroke="#000000" stroke-width="1" stroke-opacity="0"></use></g></g><g><use xlink:href="#c6KBJym64" opacity="1" fill="#000000" fill-opacity="0"></use><g><use xlink:href="#c6KBJym64" opacity="1" fill-opacity="0" stroke="#ffffff" stroke-width="1" stroke-opacity="1"></use></g></g><g><use xlink:href="#g27FaKPWmd" opacity="1" fill="#ffffff" fill-opacity="1"></use><g><use xlink:href="#g27FaKPWmd" opacity="1" fill-opacity="0" stroke="#000000" stroke-width="1" stroke-opacity="0"></use></g></g><g><use xlink:href="#aX8CCj8I" opacity="1" fill="#ffffff" fill-opacity="1"></use><g><use xlink:href="#aX8CCj8I" opacity="1" fill-opacity="0" stroke="#000000" stroke-width="1" stroke-opacity="0"></use></g></g><g><use xlink:href="#ecjYwXRn2" opacity="1" fill="#ffffff" fill-opacity="1"></use><g><use xlink:href="#ecjYwXRn2" opacity="1" fill-opacity="0" stroke="#000000" stroke-width="1" stroke-opacity="0"></use></g></g><g><use xlink:href="#f1n1tFOjCT" opacity="1" fill="#ffffff" fill-opacity="1"></use><g><use xlink:href="#f1n1tFOjCT" opacity="1" fill-opacity="0" stroke="#000000" stroke-width="1" stroke-opacity="0"></use></g></g><g><use xlink:href="#d2AgR3JSNE" opacity="1" fill="#68e1fd" fill-opacity="1"></use><g><use xlink:href="#d2AgR3JSNE" opacity="1" fill-opacity="0" stroke="#000000" stroke-width="1" stroke-opacity="0"></use></g></g><g><use xlink:href="#b2yCUKGIlX" opacity="1" fill="#68e1fd" fill-opacity="1"></use><g><use xlink:href="#b2yCUKGIlX" opacity="1" fill-opacity="0" stroke="#000000" stroke-width="1" stroke-opacity="0"></use></g></g><g><use xlink:href="#jg3tlAzQO" opacity="1" fill="#68e1fd" fill-opacity="1"></use><g><use xlink:href="#jg3tlAzQO" opacity="1" fill-opacity="0" stroke="#000000" stroke-width="1" stroke-opacity="0"></use></g></g><g><use xlink:href="#dFoOiLn4D" opacity="1" fill="#f2f2f2" fill-opacity="1"></use><g><use xlink:href="#dFoOiLn4D" opacity="1" fill-opacity="0" stroke="#000000" stroke-width="1" stroke-opacity="0"></use></g></g><g><use xlink:href="#czrhPIYCK" opacity="1" fill="#68e1fd" fill-opacity="1"></use><g><use xlink:href="#czrhPIYCK" opacity="1" fill-opacity="0" stroke="#000000" stroke-width="1" stroke-opacity="0"></use></g></g><g><use xlink:href="#jgXdFAORH" opacity="1" fill="#f2f2f2" fill-opacity="1"></use><g><use xlink:href="#jgXdFAORH" opacity="1" fill-opacity="0" stroke="#000000" stroke-width="1" stroke-opacity="0"></use></g></g><g><use xlink:href="#cUW9wMHYT" opacity="1" fill="#000000" fill-opacity="0"></use><g><use xlink:href="#cUW9wMHYT" opacity="1" fill-opacity="0" stroke="#0071bc" stroke-width="3" stroke-opacity="1"></use></g></g><g><use xlink:href="#a3Rrfegpd" opacity="1" fill="#2e3192" fill-opacity="1"></use><g><use xlink:href="#a3Rrfegpd" opacity="1" fill-opacity="0" stroke="#000000" stroke-width="1" stroke-opacity="0"></use></g></g></g></g></svg>